<?xml version="1.0" encoding="UTF-8" standalone="no"?>
<!DOCTYPE svg PUBLIC "-//W3C//DTD SVG 1.1//EN" "http://www.w3.org/Graphics/SVG/1.1/DTD/svg11.dtd">
<svg width="100%" height="100%" viewBox="0 0 128 128" version="1.1" xmlns="http://www.w3.org/2000/svg" xmlns:xlink="http://www.w3.org/1999/xlink" xml:space="preserve" xmlns:serif="http://www.serif.com/" style="fill-rule:evenodd;clip-rule:evenodd;stroke-linejoin:round;stroke-miterlimit:2;">
    <g transform="matrix(0.8,0,0,0.8,-70.784,16)">
        <path d="M128.48,0C108.48,0 108.48,59.96 88.48,59.96C108.48,59.96 108.48,120 128.48,120C148.48,120 148.48,59.96 248.48,59.96C148.48,59.96 148.9,0 128.48,0Z" style="fill:url(#_Linear1);fill-rule:nonzero;"/>
    </g>
    <g transform="matrix(0.8,0,0,0.8,-70.784,16)">
        <path d="M208.48,120C228.48,120 228.48,59.96 248.48,59.96C228.48,59.96 228.48,0 208.48,0C188.48,0 188.48,59.96 88.48,59.96C188.48,59.96 188.48,120 208.48,120Z" style="fill:url(#_Linear2);fill-rule:nonzero;"/>
    </g>
    <defs>
        <linearGradient id="_Linear1" x1="0" y1="0" x2="1" y2="0" gradientUnits="userSpaceOnUse" gradientTransform="matrix(160,0,0,160,88.48,60)"><stop offset="0" style="stop-color:rgb(255,0,64);stop-opacity:0"/><stop offset="0.5" style="stop-color:rgb(255,0,64);stop-opacity:1"/><stop offset="1" style="stop-color:rgb(255,0,64);stop-opacity:1"/></linearGradient>
        <linearGradient id="_Linear2" x1="0" y1="0" x2="1" y2="0" gradientUnits="userSpaceOnUse" gradientTransform="matrix(160,0,0,160,88.48,60)"><stop offset="0" style="stop-color:rgb(255,0,64);stop-opacity:1"/><stop offset="0.5" style="stop-color:rgb(255,0,64);stop-opacity:1"/><stop offset="1" style="stop-color:rgb(255,0,64);stop-opacity:0"/></linearGradient>
    </defs>
</svg>
